<?xml version="1.0" encoding="UTF-8" standalone="no"?>
<!DOCTYPE svg PUBLIC "-//W3C//DTD SVG 1.1//EN"
 "http://www.w3.org/Graphics/SVG/1.1/DTD/svg11.dtd">
<!-- Generated by graphviz version 2.46.1 (20210213.1702)
 -->
<!-- Pages: 1 -->
<svg width="15346pt" height="377pt"
 viewBox="0.00 0.00 15346.00 377.00" xmlns="http://www.w3.org/2000/svg" xmlns:xlink="http://www.w3.org/1999/xlink">
<g id="graph0" class="graph" transform="scale(1 1) rotate(0) translate(4 373)">
<polygon fill="white" stroke="transparent" points="-4,4 -4,-373 15342,-373 15342,4 -4,4"/>
<g id="clust1" class="cluster">
<title>cluster_Component Security</title>
<polygon fill="none" stroke="black" points="8,-8 8,-212 15330,-212 15330,-8 8,-8"/>
</g>
<g id="clust2" class="cluster">
<title>cluster_Component design security</title>
<polygon fill="none" stroke="black" points="4594,-16 4594,-140 6958,-140 6958,-16 4594,-16"/>
</g>
<g id="clust3" class="cluster">
<title>cluster_Principles of secure component design</title>
<polygon fill="none" stroke="black" points="6966,-16 6966,-140 9236,-140 9236,-16 6966,-16"/>
</g>
<g id="clust4" class="cluster">
<title>cluster_Component identification</title>
<polygon fill="none" stroke="black" points="9244,-16 9244,-140 10880,-140 10880,-16 9244,-16"/>
</g>
<g id="clust5" class="cluster">
<title>cluster_Anti&#45;reverse engineering techniques</title>
<polygon fill="none" stroke="black" points="10888,-16 10888,-140 12032,-140 12032,-16 10888,-16"/>
</g>
<g id="clust6" class="cluster">
<title>cluster_Side&#45;channel attack mitigation</title>
<polygon fill="none" stroke="black" points="12040,-16 12040,-140 13900,-140 13900,-16 12040,-16"/>
</g>
<g id="clust7" class="cluster">
<title>cluster_Anti&#45;tamper technologies</title>
<polygon fill="none" stroke="black" points="13908,-16 13908,-140 15322,-140 15322,-16 13908,-16"/>
</g>
<g id="clust8" class="cluster">
<title>cluster_Supply chain risks</title>
<polygon fill="none" stroke="black" points="1530,-16 1530,-140 2164,-140 2164,-16 1530,-16"/>
</g>
<g id="clust9" class="cluster">
<title>cluster_Supply chain security</title>
<polygon fill="none" stroke="black" points="2172,-16 2172,-140 3686,-140 3686,-16 2172,-16"/>
</g>
<g id="clust10" class="cluster">
<title>cluster_Supplier vetting</title>
<polygon fill="none" stroke="black" points="3694,-16 3694,-140 4586,-140 4586,-16 3694,-16"/>
</g>
<g id="clust11" class="cluster">
<title>cluster_Principles of unit testing</title>
<polygon fill="none" stroke="black" points="16,-16 16,-140 590,-140 590,-16 16,-16"/>
</g>
<g id="clust12" class="cluster">
<title>cluster_Security testing</title>
<polygon fill="none" stroke="black" points="598,-16 598,-140 1522,-140 1522,-16 598,-16"/>
</g>
<!-- cluster_Component design security -->
<g id="node1" class="node">
<title>cluster_Component design security</title>
<polygon fill="none" stroke="black" points="6405,-132 6239,-132 6239,-96 6405,-96 6405,-132"/>
<text text-anchor="middle" x="6322" y="-110.3" font-family="Times,serif" font-size="14.00">Component design security</text>
</g>
<!-- Component design security_This topic covers threats to the security of component design artifacts (e.g., schematics, netlists, and masks) such as hardware Trojans, intellectual property piracy, reverse engineering, tampering, side&#45;channel analysis and counterfeiting. It also introduces techniques for protecting components from unauthorized access and use -->
<g id="node2" class="node">
<title>Component design security_This topic covers threats to the security of component design artifacts (e.g., schematics, netlists, and masks) such as hardware Trojans, intellectual property piracy, reverse engineering, tampering, side&#45;channel analysis and counterfeiting. It also introduces techniques for protecting components from unauthorized access and use</title>
<ellipse fill="none" stroke="black" cx="5776" cy="-42" rx="1173.59" ry="18"/>
<text text-anchor="middle" x="5776" y="-38.3" font-family="Times,serif" font-size="14.00">This topic covers threats to the security of component design artifacts (e.g., schematics, netlists, and masks) such as hardware Trojans, intellectual property piracy, reverse engineering, tampering, side&#45;channel analysis and counterfeiting. It also introduces techniques for protecting components from unauthorized access and use</text>
</g>
<!-- cluster_Component design security&#45;&gt;Component design security_This topic covers threats to the security of component design artifacts (e.g., schematics, netlists, and masks) such as hardware Trojans, intellectual property piracy, reverse engineering, tampering, side&#45;channel analysis and counterfeiting. It also introduces techniques for protecting components from unauthorized access and use -->
<g id="edge1" class="edge">
<title>cluster_Component design security&#45;&gt;Component design security_This topic covers threats to the security of component design artifacts (e.g., schematics, netlists, and masks) such as hardware Trojans, intellectual property piracy, reverse engineering, tampering, side&#45;channel analysis and counterfeiting. It also introduces techniques for protecting components from unauthorized access and use</title>
<path fill="none" stroke="black" d="M6238.78,-102.33C6153.62,-91.41 6019.71,-74.24 5917.8,-61.18"/>
<polygon fill="black" stroke="black" points="5918.09,-57.69 5907.73,-59.89 5917.2,-64.63 5918.09,-57.69"/>
</g>
<!-- cluster_Principles of secure component design -->
<g id="node3" class="node">
<title>cluster_Principles of secure component design</title>
<polygon fill="none" stroke="black" points="8721.5,-132 8494.5,-132 8494.5,-96 8721.5,-96 8721.5,-132"/>
<text text-anchor="middle" x="8608" y="-110.3" font-family="Times,serif" font-size="14.00">Principles of secure component design</text>
</g>
<!-- Principles of secure component design_This topic covers principles such as establishing a sound security policy, treating security as an integral part of system design, trusted computing platforms, chain of trust, reducing risk, layered security, simplicity of design, minimizing system elements to be trusted, and avoiding unnecessary security mechanisms -->
<g id="node4" class="node">
<title>Principles of secure component design_This topic covers principles such as establishing a sound security policy, treating security as an integral part of system design, trusted computing platforms, chain of trust, reducing risk, layered security, simplicity of design, minimizing system elements to be trusted, and avoiding unnecessary security mechanisms</title>
<ellipse fill="none" stroke="black" cx="8101" cy="-42" rx="1127" ry="18"/>
<text text-anchor="middle" x="8101" y="-38.3" font-family="Times,serif" font-size="14.00">This topic covers principles such as establishing a sound security policy, treating security as an integral part of system design, trusted computing platforms, chain of trust, reducing risk, layered security, simplicity of design, minimizing system elements to be trusted, and avoiding unnecessary security mechanisms</text>
</g>
<!-- cluster_Principles of secure component design&#45;&gt;Principles of secure component design_This topic covers principles such as establishing a sound security policy, treating security as an integral part of system design, trusted computing platforms, chain of trust, reducing risk, layered security, simplicity of design, minimizing system elements to be trusted, and avoiding unnecessary security mechanisms -->
<g id="edge2" class="edge">
<title>cluster_Principles of secure component design&#45;&gt;Principles of secure component design_This topic covers principles such as establishing a sound security policy, treating security as an integral part of system design, trusted computing platforms, chain of trust, reducing risk, layered security, simplicity of design, minimizing system elements to be trusted, and avoiding unnecessary security mechanisms</title>
<path fill="none" stroke="black" d="M8494.22,-97.29C8417.08,-86.64 8314.85,-72.53 8233.96,-61.36"/>
<polygon fill="black" stroke="black" points="8234.09,-57.84 8223.7,-59.94 8233.13,-64.78 8234.09,-57.84"/>
</g>
<!-- cluster_Component identification -->
<g id="node5" class="node">
<title>cluster_Component identification</title>
<polygon fill="none" stroke="black" points="10139.5,-132 9984.5,-132 9984.5,-96 10139.5,-96 10139.5,-132"/>
<text text-anchor="middle" x="10062" y="-110.3" font-family="Times,serif" font-size="14.00">Component identification</text>
</g>
<!-- Component identification_This topic covers techniques such as watermarking, fingerprinting, metering, encrypted IDs, and physical unclonable functions for protecting components against intellectual property theft and ensuring component authenticity -->
<g id="node6" class="node">
<title>Component identification_This topic covers techniques such as watermarking, fingerprinting, metering, encrypted IDs, and physical unclonable functions for protecting components against intellectual property theft and ensuring component authenticity</title>
<ellipse fill="none" stroke="black" cx="10062" cy="-42" rx="810.46" ry="18"/>
<text text-anchor="middle" x="10062" y="-38.3" font-family="Times,serif" font-size="14.00">This topic covers techniques such as watermarking, fingerprinting, metering, encrypted IDs, and physical unclonable functions for protecting components against intellectual property theft and ensuring component authenticity</text>
</g>
<!-- cluster_Component identification&#45;&gt;Component identification_This topic covers techniques such as watermarking, fingerprinting, metering, encrypted IDs, and physical unclonable functions for protecting components against intellectual property theft and ensuring component authenticity -->
<g id="edge3" class="edge">
<title>cluster_Component identification&#45;&gt;Component identification_This topic covers techniques such as watermarking, fingerprinting, metering, encrypted IDs, and physical unclonable functions for protecting components against intellectual property theft and ensuring component authenticity</title>
<path fill="none" stroke="black" d="M10062,-95.7C10062,-87.98 10062,-78.71 10062,-70.11"/>
<polygon fill="black" stroke="black" points="10065.5,-70.1 10062,-60.1 10058.5,-70.1 10065.5,-70.1"/>
</g>
<!-- cluster_Anti&#45;reverse engineering techniques -->
<g id="node7" class="node">
<title>cluster_Anti&#45;reverse engineering techniques</title>
<polygon fill="none" stroke="black" points="11337.5,-132 11124.5,-132 11124.5,-96 11337.5,-96 11337.5,-132"/>
<text text-anchor="middle" x="11231" y="-110.3" font-family="Times,serif" font-size="14.00">Anti&#45;reverse engineering techniques</text>
</g>
<!-- Anti&#45;reverse engineering techniques_This topic covers techniques such as design obfuscation and camouflaging for making component designs and implementations difficult to reverse engineer -->
<g id="node8" class="node">
<title>Anti&#45;reverse engineering techniques_This topic covers techniques such as design obfuscation and camouflaging for making component designs and implementations difficult to reverse engineer</title>
<ellipse fill="none" stroke="black" cx="11460" cy="-42" rx="564.3" ry="18"/>
<text text-anchor="middle" x="11460" y="-38.3" font-family="Times,serif" font-size="14.00">This topic covers techniques such as design obfuscation and camouflaging for making component designs and implementations difficult to reverse engineer</text>
</g>
<!-- cluster_Anti&#45;reverse engineering techniques&#45;&gt;Anti&#45;reverse engineering techniques_This topic covers techniques such as design obfuscation and camouflaging for making component designs and implementations difficult to reverse engineer -->
<g id="edge4" class="edge">
<title>cluster_Anti&#45;reverse engineering techniques&#45;&gt;Anti&#45;reverse engineering techniques_This topic covers techniques such as design obfuscation and camouflaging for making component designs and implementations difficult to reverse engineer</title>
<path fill="none" stroke="black" d="M11286.73,-95.97C11319.26,-86.02 11360.48,-73.42 11394.55,-63.01"/>
<polygon fill="black" stroke="black" points="11395.88,-66.26 11404.42,-59.99 11393.83,-59.57 11395.88,-66.26"/>
</g>
<!-- cluster_Side&#45;channel attack mitigation -->
<g id="node9" class="node">
<title>cluster_Side&#45;channel attack mitigation</title>
<polygon fill="none" stroke="black" points="12646.5,-132 12463.5,-132 12463.5,-96 12646.5,-96 12646.5,-132"/>
<text text-anchor="middle" x="12555" y="-110.3" font-family="Times,serif" font-size="14.00">Side&#45;channel attack mitigation</text>
</g>
<!-- Side&#45;channel attack mitigation_This topic covers techniques for defending against side&#45;channel attacks primarily targeted at cryptographic algorithms. Defensive techniques include leakage reduction, noise injection, frequent key updates, physical random functions, and secure scan chains -->
<g id="node10" class="node">
<title>Side&#45;channel attack mitigation_This topic covers techniques for defending against side&#45;channel attacks primarily targeted at cryptographic algorithms. Defensive techniques include leakage reduction, noise injection, frequent key updates, physical random functions, and secure scan chains</title>
<ellipse fill="none" stroke="black" cx="12970" cy="-42" rx="922.04" ry="18"/>
<text text-anchor="middle" x="12970" y="-38.3" font-family="Times,serif" font-size="14.00">This topic covers techniques for defending against side&#45;channel attacks primarily targeted at cryptographic algorithms. Defensive techniques include leakage reduction, noise injection, frequent key updates, physical random functions, and secure scan chains</text>
</g>
<!-- cluster_Side&#45;channel attack mitigation&#45;&gt;Side&#45;channel attack mitigation_This topic covers techniques for defending against side&#45;channel attacks primarily targeted at cryptographic algorithms. Defensive techniques include leakage reduction, noise injection, frequent key updates, physical random functions, and secure scan chains -->
<g id="edge5" class="edge">
<title>cluster_Side&#45;channel attack mitigation&#45;&gt;Side&#45;channel attack mitigation_This topic covers techniques for defending against side&#45;channel attacks primarily targeted at cryptographic algorithms. Defensive techniques include leakage reduction, noise injection, frequent key updates, physical random functions, and secure scan chains</title>
<path fill="none" stroke="black" d="M12646.59,-97.55C12709.36,-86.96 12792.98,-72.86 12859.47,-61.64"/>
<polygon fill="black" stroke="black" points="12860.29,-65.06 12869.57,-59.94 12859.12,-58.15 12860.29,-65.06"/>
</g>
<!-- cluster_Anti&#45;tamper technologies -->
<g id="node11" class="node">
<title>cluster_Anti&#45;tamper technologies</title>
<polygon fill="none" stroke="black" points="14381.5,-132 14226.5,-132 14226.5,-96 14381.5,-96 14381.5,-132"/>
<text text-anchor="middle" x="14304" y="-110.3" font-family="Times,serif" font-size="14.00">Anti&#45;tamper technologies</text>
</g>
<!-- Anti&#45;tamper technologies_This topic covers techniques for making components resistant to physical and electronic attacks including physical protection techniques, tamper evident systems and tamper responding systems -->
<g id="node12" class="node">
<title>Anti&#45;tamper technologies_This topic covers techniques for making components resistant to physical and electronic attacks including physical protection techniques, tamper evident systems and tamper responding systems</title>
<ellipse fill="none" stroke="black" cx="14615" cy="-42" rx="699.18" ry="18"/>
<text text-anchor="middle" x="14615" y="-38.3" font-family="Times,serif" font-size="14.00">This topic covers techniques for making components resistant to physical and electronic attacks including physical protection techniques, tamper evident systems and tamper responding systems</text>
</g>
<!-- cluster_Anti&#45;tamper technologies&#45;&gt;Anti&#45;tamper technologies_This topic covers techniques for making components resistant to physical and electronic attacks including physical protection techniques, tamper evident systems and tamper responding systems -->
<g id="edge6" class="edge">
<title>cluster_Anti&#45;tamper technologies&#45;&gt;Anti&#45;tamper technologies_This topic covers techniques for making components resistant to physical and electronic attacks including physical protection techniques, tamper evident systems and tamper responding systems</title>
<path fill="none" stroke="black" d="M14379.68,-95.97C14425.09,-85.75 14482.95,-72.72 14529.94,-62.15"/>
<polygon fill="black" stroke="black" points="14530.8,-65.54 14539.79,-59.93 14529.26,-58.71 14530.8,-65.54"/>
</g>
<!-- cluster_Supply chain risks -->
<g id="node13" class="node">
<title>cluster_Supply chain risks</title>
<polygon fill="none" stroke="black" points="2030.5,-132 1913.5,-132 1913.5,-96 2030.5,-96 2030.5,-132"/>
<text text-anchor="middle" x="1972" y="-110.3" font-family="Times,serif" font-size="14.00">Supply chain risks</text>
</g>
<!-- Supply chain risks_Security threats and risks to both hardware and software in component procurement -->
<g id="node14" class="node">
<title>Supply chain risks_Security threats and risks to both hardware and software in component procurement</title>
<ellipse fill="none" stroke="black" cx="1847" cy="-42" rx="308.95" ry="18"/>
<text text-anchor="middle" x="1847" y="-38.3" font-family="Times,serif" font-size="14.00">Security threats and risks to both hardware and software in component procurement</text>
</g>
<!-- cluster_Supply chain risks&#45;&gt;Supply chain risks_Security threats and risks to both hardware and software in component procurement -->
<g id="edge7" class="edge">
<title>cluster_Supply chain risks&#45;&gt;Supply chain risks_Security threats and risks to both hardware and software in component procurement</title>
<path fill="none" stroke="black" d="M1941.42,-95.88C1924.8,-86.57 1904.07,-74.96 1886.27,-64.99"/>
<polygon fill="black" stroke="black" points="1887.7,-61.78 1877.26,-59.95 1884.28,-67.89 1887.7,-61.78"/>
</g>
<!-- cluster_Supply chain security -->
<g id="node15" class="node">
<title>cluster_Supply chain security</title>
<polygon fill="none" stroke="black" points="2996,-132 2862,-132 2862,-96 2996,-96 2996,-132"/>
<text text-anchor="middle" x="2929" y="-110.3" font-family="Times,serif" font-size="14.00">Supply chain security</text>
</g>
<!-- Supply chain security_Strategies such as physical security, split manufacturing, traceability, cargo screening and validation, and inspections to detect and prevent compromises of component security during the procurement process -->
<g id="node16" class="node">
<title>Supply chain security_Strategies such as physical security, split manufacturing, traceability, cargo screening and validation, and inspections to detect and prevent compromises of component security during the procurement process</title>
<ellipse fill="none" stroke="black" cx="2929" cy="-42" rx="748.97" ry="18"/>
<text text-anchor="middle" x="2929" y="-38.3" font-family="Times,serif" font-size="14.00">Strategies such as physical security, split manufacturing, traceability, cargo screening and validation, and inspections to detect and prevent compromises of component security during the procurement process</text>
</g>
<!-- cluster_Supply chain security&#45;&gt;Supply chain security_Strategies such as physical security, split manufacturing, traceability, cargo screening and validation, and inspections to detect and prevent compromises of component security during the procurement process -->
<g id="edge8" class="edge">
<title>cluster_Supply chain security&#45;&gt;Supply chain security_Strategies such as physical security, split manufacturing, traceability, cargo screening and validation, and inspections to detect and prevent compromises of component security during the procurement process</title>
<path fill="none" stroke="black" d="M2929,-95.7C2929,-87.98 2929,-78.71 2929,-70.11"/>
<polygon fill="black" stroke="black" points="2932.5,-70.1 2929,-60.1 2925.5,-70.1 2932.5,-70.1"/>
</g>
<!-- cluster_Supplier vetting -->
<g id="node17" class="node">
<title>cluster_Supplier vetting</title>
<polygon fill="none" stroke="black" points="3999,-132 3895,-132 3895,-96 3999,-96 3999,-132"/>
<text text-anchor="middle" x="3947" y="-110.3" font-family="Times,serif" font-size="14.00">Supplier vetting</text>
</g>
<!-- Supplier vetting_This topic includes strategies such as supplier credentialing to establish trusted suppliers and transporters of components -->
<g id="node18" class="node">
<title>Supplier vetting_This topic includes strategies such as supplier credentialing to establish trusted suppliers and transporters of components</title>
<ellipse fill="none" stroke="black" cx="4140" cy="-42" rx="438.12" ry="18"/>
<text text-anchor="middle" x="4140" y="-38.3" font-family="Times,serif" font-size="14.00">This topic includes strategies such as supplier credentialing to establish trusted suppliers and transporters of components</text>
</g>
<!-- cluster_Supplier vetting&#45;&gt;Supplier vetting_This topic includes strategies such as supplier credentialing to establish trusted suppliers and transporters of components -->
<g id="edge9" class="edge">
<title>cluster_Supplier vetting&#45;&gt;Supplier vetting_This topic includes strategies such as supplier credentialing to establish trusted suppliers and transporters of components</title>
<path fill="none" stroke="black" d="M3994.21,-95.88C4021.28,-86.06 4055.43,-73.67 4083.87,-63.36"/>
<polygon fill="black" stroke="black" points="4085.07,-66.65 4093.27,-59.95 4082.68,-60.07 4085.07,-66.65"/>
</g>
<!-- cluster_Principles of unit testing -->
<g id="node19" class="node">
<title>cluster_Principles of unit testing</title>
<polygon fill="none" stroke="black" points="480,-132 330,-132 330,-96 480,-96 480,-132"/>
<text text-anchor="middle" x="405" y="-110.3" font-family="Times,serif" font-size="14.00">Principles of unit testing</text>
</g>
<!-- Principles of unit testing_Unit testing tools and techniques as distinguished from system&#45;level testing -->
<g id="node20" class="node">
<title>Principles of unit testing_Unit testing tools and techniques as distinguished from system&#45;level testing</title>
<ellipse fill="none" stroke="black" cx="303" cy="-42" rx="278.65" ry="18"/>
<text text-anchor="middle" x="303" y="-38.3" font-family="Times,serif" font-size="14.00">Unit testing tools and techniques as distinguished from system&#45;level testing</text>
</g>
<!-- cluster_Principles of unit testing&#45;&gt;Principles of unit testing_Unit testing tools and techniques as distinguished from system&#45;level testing -->
<g id="edge10" class="edge">
<title>cluster_Principles of unit testing&#45;&gt;Principles of unit testing_Unit testing tools and techniques as distinguished from system&#45;level testing</title>
<path fill="none" stroke="black" d="M380.05,-95.88C366.86,-86.83 350.5,-75.6 336.25,-65.82"/>
<polygon fill="black" stroke="black" points="337.92,-62.72 327.69,-59.95 333.96,-68.49 337.92,-62.72"/>
</g>
<!-- cluster_Security testing -->
<g id="node21" class="node">
<title>cluster_Security testing</title>
<polygon fill="none" stroke="black" points="1110.5,-132 1009.5,-132 1009.5,-96 1110.5,-96 1110.5,-132"/>
<text text-anchor="middle" x="1060" y="-110.3" font-family="Times,serif" font-size="14.00">Security testing</text>
</g>
<!-- Security testing_Tools and techniques such as fuzz testing for testing the security properties of a component beyond its functional correctness -->
<g id="node22" class="node">
<title>Security testing_Tools and techniques such as fuzz testing for testing the security properties of a component beyond its functional correctness</title>
<ellipse fill="none" stroke="black" cx="1060" cy="-42" rx="453.82" ry="18"/>
<text text-anchor="middle" x="1060" y="-38.3" font-family="Times,serif" font-size="14.00">Tools and techniques such as fuzz testing for testing the security properties of a component beyond its functional correctness</text>
</g>
<!-- cluster_Security testing&#45;&gt;Security testing_Tools and techniques such as fuzz testing for testing the security properties of a component beyond its functional correctness -->
<g id="edge11" class="edge">
<title>cluster_Security testing&#45;&gt;Security testing_Tools and techniques such as fuzz testing for testing the security properties of a component beyond its functional correctness</title>
<path fill="none" stroke="black" d="M1060,-95.7C1060,-87.98 1060,-78.71 1060,-70.11"/>
<polygon fill="black" stroke="black" points="1063.5,-70.1 1060,-60.1 1056.5,-70.1 1063.5,-70.1"/>
</g>
<!-- cluster_Component Design -->
<g id="node23" class="node">
<title>cluster_Component Design</title>
<polygon fill="none" stroke="black" points="10062,-204 9949.73,-186 10062,-168 10174.27,-186 10062,-204"/>
<text text-anchor="middle" x="10062" y="-182.3" font-family="Times,serif" font-size="14.00">Component Design</text>
</g>
<!-- cluster_Component Design&#45;&gt;cluster_Component design security -->
<g id="edge12" class="edge">
<title>cluster_Component Design&#45;&gt;cluster_Component design security</title>
<path fill="none" stroke="black" d="M9959.29,-184.42C9568.83,-182.04 8139.34,-171.54 6962,-140 6767.53,-134.79 6539.94,-125.03 6415.34,-119.36"/>
<polygon fill="black" stroke="black" points="6415.23,-115.86 6405.08,-118.9 6414.91,-122.85 6415.23,-115.86"/>
</g>
<!-- cluster_Component Design&#45;&gt;cluster_Principles of secure component design -->
<g id="edge13" class="edge">
<title>cluster_Component Design&#45;&gt;cluster_Principles of secure component design</title>
<path fill="none" stroke="black" d="M9980.45,-181.07C9738.14,-169.41 9021.41,-134.9 8731.64,-120.95"/>
<polygon fill="black" stroke="black" points="8731.67,-117.45 8721.51,-120.46 8731.33,-124.44 8731.67,-117.45"/>
</g>
<!-- cluster_Component Design&#45;&gt;cluster_Component identification -->
<g id="edge14" class="edge">
<title>cluster_Component Design&#45;&gt;cluster_Component identification</title>
<path fill="none" stroke="black" d="M10062,-167.7C10062,-159.98 10062,-150.71 10062,-142.11"/>
<polygon fill="black" stroke="black" points="10065.5,-142.1 10062,-132.1 10058.5,-142.1 10065.5,-142.1"/>
</g>
<!-- cluster_Component Design&#45;&gt;cluster_Anti&#45;reverse engineering techniques -->
<g id="edge15" class="edge">
<title>cluster_Component Design&#45;&gt;cluster_Anti&#45;reverse engineering techniques</title>
<path fill="none" stroke="black" d="M10143.41,-181.01C10291.05,-173.67 10612.81,-157.19 10884,-140 10960.69,-135.14 11046.85,-128.94 11114.13,-123.92"/>
<polygon fill="black" stroke="black" points="11114.63,-127.4 11124.34,-123.16 11114.11,-120.42 11114.63,-127.4"/>
</g>
<!-- cluster_Component Design&#45;&gt;cluster_Side&#45;channel attack mitigation -->
<g id="edge16" class="edge">
<title>cluster_Component Design&#45;&gt;cluster_Side&#45;channel attack mitigation</title>
<path fill="none" stroke="black" d="M10159.85,-183.65C10447.58,-179.48 11315.94,-165.55 12036,-140 12180.83,-134.86 12348.27,-126.33 12452.91,-120.68"/>
<polygon fill="black" stroke="black" points="12453.36,-124.16 12463.15,-120.13 12452.98,-117.17 12453.36,-124.16"/>
</g>
<!-- cluster_Component Design&#45;&gt;cluster_Anti&#45;tamper technologies -->
<g id="edge17" class="edge">
<title>cluster_Component Design&#45;&gt;cluster_Anti&#45;tamper technologies</title>
<path fill="none" stroke="black" d="M10165.18,-184.5C10698.31,-181.81 13145.32,-168.13 13904,-140 14011.52,-136.01 14135.1,-127.72 14216.1,-121.78"/>
<polygon fill="black" stroke="black" points="14216.54,-125.26 14226.25,-121.03 14216.02,-118.28 14216.54,-125.26"/>
</g>
<!-- cluster_Component Procurement -->
<g id="node24" class="node">
<title>cluster_Component Procurement</title>
<polygon fill="none" stroke="black" points="2929,-204 2787.4,-186 2929,-168 3070.6,-186 2929,-204"/>
<text text-anchor="middle" x="2929" y="-182.3" font-family="Times,serif" font-size="14.00">Component Procurement</text>
</g>
<!-- cluster_Component Procurement&#45;&gt;cluster_Supply chain risks -->
<g id="edge18" class="edge">
<title>cluster_Component Procurement&#45;&gt;cluster_Supply chain risks</title>
<path fill="none" stroke="black" d="M2825.74,-181.12C2679.24,-175.1 2402.73,-161.88 2168,-140 2125.7,-136.06 2078.45,-130.08 2040.94,-124.95"/>
<polygon fill="black" stroke="black" points="2041.02,-121.43 2030.63,-123.53 2040.06,-128.37 2041.02,-121.43"/>
</g>
<!-- cluster_Component Procurement&#45;&gt;cluster_Supply chain security -->
<g id="edge19" class="edge">
<title>cluster_Component Procurement&#45;&gt;cluster_Supply chain security</title>
<path fill="none" stroke="black" d="M2929,-167.7C2929,-159.98 2929,-150.71 2929,-142.11"/>
<polygon fill="black" stroke="black" points="2932.5,-142.1 2929,-132.1 2925.5,-142.1 2932.5,-142.1"/>
</g>
<!-- cluster_Component Procurement&#45;&gt;cluster_Supplier vetting -->
<g id="edge20" class="edge">
<title>cluster_Component Procurement&#45;&gt;cluster_Supplier vetting</title>
<path fill="none" stroke="black" d="M3026.69,-180.41C3171.59,-173.33 3452,-158.61 3690,-140 3756.62,-134.79 3832.79,-127.17 3884.8,-121.72"/>
<polygon fill="black" stroke="black" points="3885.3,-125.18 3894.88,-120.66 3884.56,-118.22 3885.3,-125.18"/>
</g>
<!-- cluster_Component Testing -->
<g id="node25" class="node">
<title>cluster_Component Testing</title>
<polygon fill="none" stroke="black" points="1060,-204 945.21,-186 1060,-168 1174.79,-186 1060,-204"/>
<text text-anchor="middle" x="1060" y="-182.3" font-family="Times,serif" font-size="14.00">Component Testing</text>
</g>
<!-- cluster_Component Testing&#45;&gt;cluster_Principles of unit testing -->
<g id="edge21" class="edge">
<title>cluster_Component Testing&#45;&gt;cluster_Principles of unit testing</title>
<path fill="none" stroke="black" d="M989.66,-178.98C898.35,-171 734.11,-156.03 594,-140 560.17,-136.13 523.01,-131.33 490.66,-126.98"/>
<polygon fill="black" stroke="black" points="490.72,-123.46 480.34,-125.58 489.78,-130.39 490.72,-123.46"/>
</g>
<!-- cluster_Component Testing&#45;&gt;cluster_Security testing -->
<g id="edge22" class="edge">
<title>cluster_Component Testing&#45;&gt;cluster_Security testing</title>
<path fill="none" stroke="black" d="M1060,-167.7C1060,-159.98 1060,-150.71 1060,-142.11"/>
<polygon fill="black" stroke="black" points="1063.5,-142.1 1060,-132.1 1056.5,-142.1 1063.5,-142.1"/>
</g>
<!-- Component Security -->
<g id="node26" class="node">
<title>Component Security</title>
<polygon fill="none" stroke="black" points="2993.5,-369 2864.5,-369 2864.5,-240 2993.5,-240 2993.5,-369"/>
<text text-anchor="middle" x="2929" y="-300.8" font-family="Times,serif" font-size="14.00">Component Security</text>
</g>
<!-- Component Security&#45;&gt;cluster_Component Design -->
<g id="edge23" class="edge">
<title>Component Security&#45;&gt;cluster_Component Design</title>
<path fill="none" stroke="black" d="M2993.67,-302.44C3651.37,-291.7 9121.34,-202.36 9955.5,-188.74"/>
<polygon fill="black" stroke="black" points="9955.75,-192.24 9965.69,-188.57 9955.63,-185.24 9955.75,-192.24"/>
</g>
<!-- Component Security&#45;&gt;cluster_Component Procurement -->
<g id="edge24" class="edge">
<title>Component Security&#45;&gt;cluster_Component Procurement</title>
<path fill="none" stroke="black" d="M2929,-239.8C2929,-230.84 2929,-222.06 2929,-214.31"/>
<polygon fill="black" stroke="black" points="2932.5,-214.13 2929,-204.13 2925.5,-214.13 2932.5,-214.13"/>
</g>
<!-- Component Security&#45;&gt;cluster_Component Testing -->
<g id="edge25" class="edge">
<title>Component Security&#45;&gt;cluster_Component Testing</title>
<path fill="none" stroke="black" d="M2864.39,-299.47C2583.74,-281.98 1470.1,-212.56 1147.81,-192.47"/>
<polygon fill="black" stroke="black" points="1147.79,-188.97 1137.59,-191.84 1147.35,-195.95 1147.79,-188.97"/>
</g>
</g>
</svg>
